<svg width="21" height="19" viewBox="0 0 21 19" fill="none" xmlns="http://www.w3.org/2000/svg">
<path fill-rule="evenodd" clip-rule="evenodd" d="M13.0019 9.91252V15C13.0019 15.3788 12.7879 15.725 12.4491 15.8944L8.44911 17.8944C7.78421 18.2269 7.0019 17.7434 7.0019 17V9.91252L0.227939 1.63324C-0.306277 0.980307 0.15827 0 1.0019 0H19.0019C19.8455 0 20.3101 0.980307 19.7759 1.63324L13.0019 9.91252ZM11.0019 14.382V9.55556C11.0019 9.32471 11.0818 9.10098 11.2279 8.92232L16.8917 2H3.11214L8.77585 8.92232C8.92203 9.10098 9.0019 9.32471 9.0019 9.55556V15.382L11.0019 14.382Z" fill="#D4D4D4"/>
</svg>
