<svg width="10" height="11" viewBox="0 0 10 11" fill="none" xmlns="http://www.w3.org/2000/svg">
<path fill-rule="evenodd" clip-rule="evenodd" d="M6.01635 5.00718L9.79095 8.78519C10.0702 9.06465 10.07 9.51754 9.79049 9.79675C9.51103 10.076 9.05814 10.0758 8.77893 9.7963L5.00404 6.01799L1.22069 9.79572C0.941143 10.0748 0.488252 10.0745 0.209125 9.79497C-0.0700018 9.51543 -0.0696651 9.06254 0.209877 8.78341L3.99294 5.00597L0.211225 1.22083C-0.0679829 0.941372 -0.067778 0.488481 0.211683 0.209272C0.491144 -0.069936 0.944035 -0.0697312 1.22324 0.20973L5.00525 3.99516L8.77931 0.226703C9.05886 -0.0524236 9.51175 -0.052087 9.79087 0.227455C10.07 0.506997 10.0697 0.959888 9.79012 1.23901L6.01635 5.00718Z" fill="#D4D4D4"/>
</svg>
