<svg width="25" height="26" viewBox="0 0 25 26" fill="none" xmlns="http://www.w3.org/2000/svg">
<path fill-rule="evenodd" clip-rule="evenodd" d="M8.12051 7.77687C8.28019 6.43805 9.41956 5.40002 10.8014 5.40002C12.1832 5.40002 13.3225 6.43805 13.4822 7.77687C15.7346 8.79794 17.3014 11.066 17.3014 13.7V18.2159L18.8048 21.1945C19.107 21.7931 18.6719 22.5 18.0014 22.5H13.3477C12.9771 23.5487 11.977 24.3 10.8014 24.3C9.62577 24.3 8.62566 23.5487 8.255 22.5H3.60137C2.93083 22.5 2.49577 21.7931 2.79792 21.1945L4.30137 18.2159V13.7C4.30137 11.066 5.86811 8.79794 8.12051 7.77687ZM15.5979 18.8357L16.5389 20.7H5.0638L6.00482 18.8357C6.0683 18.71 6.10137 18.5711 6.10137 18.4302V13.7C6.10137 11.1043 8.20563 9.00002 10.8014 9.00002C13.3971 9.00002 15.5014 11.1043 15.5014 13.7V18.4302C15.5014 18.5711 15.5344 18.71 15.5979 18.8357Z" fill="#92929D"/>
<rect x="13.5" y="0.900024" width="10.8" height="10.8" rx="5.4" fill="#FC5A5A"/>
</svg>
