<svg width="15" height="16" viewBox="0 0 15 16" fill="none" xmlns="http://www.w3.org/2000/svg">
<path d="M2.04575 9.65617V4.26087H12.2891L11.0865 5.49608C11.0375 5.54658 10.9986 5.60581 10.9721 5.67185C10.9455 5.73788 10.9318 5.8078 10.9318 5.87966C10.9318 5.95054 10.9455 6.02143 10.9721 6.08649C10.9986 6.15253 11.0375 6.21274 11.0865 6.26226C11.1351 6.31276 11.1929 6.35354 11.2567 6.38073C11.3204 6.40792 11.3887 6.42249 11.4577 6.42249C11.5268 6.42249 11.5951 6.40792 11.6588 6.38073C11.7225 6.35354 11.7804 6.31276 11.829 6.26226L13.9206 4.10453C13.9643 4.05792 13.9981 4.00354 14.0199 3.94236C14.055 3.87438 14.073 3.79864 14.0721 3.72193V3.66755C14.0777 3.62288 14.0777 3.57724 14.0721 3.53257C14.0751 3.51509 14.0751 3.49664 14.0721 3.47916C14.0486 3.41895 14.015 3.36457 13.9728 3.31699L11.8813 1.15926C11.7828 1.05729 11.6493 1 11.5101 1C11.3708 1 11.2373 1.05729 11.1388 1.15926C11.0403 1.26025 10.985 1.39814 10.985 1.54186C10.985 1.68558 11.0403 1.82347 11.1388 1.92544L12.2891 3.18201H2.04575C1.76841 3.18201 1.50243 3.29562 1.30628 3.49761C1.11022 3.70056 1 3.97441 1 4.26087V9.65617C1 9.79892 1.05506 9.93584 1.15314 10.0368C1.25122 10.1388 1.38425 10.1951 1.52292 10.1951C1.66159 10.1951 1.79453 10.1388 1.89261 10.0368C1.99069 9.93584 2.04575 9.79892 2.04575 9.65617Z" fill="#D4D4D4" stroke="#D4D4D4" stroke-width="0.4"/>
<path d="M14.0719 5.88004C13.9333 5.88004 13.8003 5.93636 13.7023 6.03735C13.6042 6.13931 13.5491 6.27623 13.5491 6.41898V11.8143H3.30572L4.5084 10.5791C4.60686 10.4771 4.66212 10.3392 4.66212 10.1955C4.66212 10.0518 4.60686 9.91388 4.5084 9.81289C4.40993 9.71093 4.27641 9.65364 4.13715 9.65364C3.9979 9.65364 3.86438 9.71093 3.76591 9.81289L1.67431 11.9706C1.63217 12.0182 1.59847 12.0726 1.57497 12.1328C1.57206 12.1503 1.57206 12.1687 1.57497 12.1862C1.56953 12.2309 1.56953 12.2765 1.57497 12.3212V12.3532C1.57526 12.4105 1.58585 12.4678 1.60634 12.5212C1.62809 12.5814 1.66188 12.6368 1.70568 12.6824L3.79728 14.8402C3.84583 14.8916 3.90371 14.9314 3.96741 14.9586C4.03111 14.9858 4.09948 15.0004 4.16852 15.0004C4.23756 15.0004 4.30583 14.9858 4.36963 14.9586C4.43333 14.9314 4.49111 14.8916 4.53976 14.8402C4.5888 14.7906 4.62764 14.7304 4.65425 14.6654C4.68076 14.5993 4.69445 14.5284 4.69445 14.4575C4.69445 14.3867 4.68076 14.3158 4.65425 14.2497C4.62764 14.1847 4.5888 14.1245 4.53976 14.0749L3.30572 12.8931H13.5491C13.8265 12.8931 14.0924 12.7795 14.2886 12.5766C14.4846 12.3746 14.5949 12.0998 14.5949 11.8143V6.41898C14.5949 6.27623 14.5398 6.13931 14.4417 6.03735C14.3436 5.93636 14.2107 5.88004 14.0719 5.88004Z" fill="#D4D4D4" stroke="#D4D4D4" stroke-width="0.4"/>
</svg>
