<svg width="16" height="16" viewBox="0 0 16 16" fill="none" xmlns="http://www.w3.org/2000/svg">
<path fill-rule="evenodd" clip-rule="evenodd" d="M8.27444 1.72106L14.2744 7.72106C14.5257 7.97192 14.6678 8.31187 14.6697 8.66695C14.6719 9.02109 14.5299 9.36086 14.2763 9.60812L9.60996 14.2745C9.36271 14.528 9.02293 14.67 8.66879 14.6679C8.31609 14.6693 7.97736 14.5301 7.72761 14.2811L1.72761 8.28106C1.47528 8.03067 1.33362 7.68972 1.3342 7.33424V2.66789C1.33627 1.93219 1.93215 1.33631 2.66785 1.33424H7.33326C7.68596 1.33279 8.02469 1.47201 8.27444 1.72106ZM2.66688 7.33463L8.66688 13.3412L13.3332 8.66169L7.33323 2.66169V2.66828H2.66688V7.33463Z" fill="#D4D4D4"/>
<path d="M14.2744 7.72106L14.2037 7.79177L14.2038 7.79184L14.2744 7.72106ZM8.27444 1.72106L8.34515 1.65035L8.34505 1.65025L8.27444 1.72106ZM14.6697 8.66695L14.5697 8.66749V8.66755L14.6697 8.66695ZM14.2763 9.60812L14.2065 9.53652L14.2056 9.53741L14.2763 9.60812ZM9.60996 14.2745L9.53925 14.2038L9.53837 14.2047L9.60996 14.2745ZM8.66879 14.6679L8.6694 14.5679L8.66838 14.5679L8.66879 14.6679ZM7.72761 14.2811L7.6569 14.3518L7.657 14.3519L7.72761 14.2811ZM1.72761 8.28106L1.79832 8.21035L1.79805 8.21008L1.72761 8.28106ZM1.3342 7.33424L1.4342 7.3344V7.33424H1.3342ZM1.3342 2.66789L1.2342 2.66761V2.66789H1.3342ZM2.66785 1.33424V1.23424L2.66757 1.23424L2.66785 1.33424ZM7.33326 1.33424V1.43424L7.33367 1.43424L7.33326 1.33424ZM8.66688 13.3412L8.59613 13.4119L8.66694 13.4828L8.73769 13.4118L8.66688 13.3412ZM2.66688 7.33463H2.56688V7.37602L2.59613 7.4053L2.66688 7.33463ZM13.3332 8.66169L13.404 8.7323L13.4746 8.66159L13.4039 8.59098L13.3332 8.66169ZM7.33323 2.66169L7.40394 2.59098L7.23323 2.42027V2.66169H7.33323ZM7.33323 2.66828V2.76828H7.43323V2.66828H7.33323ZM2.66688 2.66828V2.56828H2.56688V2.66828H2.66688ZM14.3451 7.65035L8.34515 1.65035L8.20372 1.79177L14.2037 7.79177L14.3451 7.65035ZM14.7697 8.6664C14.7677 8.28496 14.615 7.91977 14.3451 7.65029L14.2038 7.79184C14.4364 8.02407 14.5679 8.33878 14.5697 8.66749L14.7697 8.6664ZM14.3461 9.67971C14.6191 9.41349 14.7721 9.04765 14.7697 8.66634L14.5697 8.66755C14.5717 8.99453 14.4406 9.30824 14.2065 9.53653L14.3461 9.67971ZM9.68068 14.3452L14.347 9.67883L14.2056 9.53741L9.53925 14.2038L9.68068 14.3452ZM8.66818 14.7679C9.04949 14.7702 9.41533 14.6173 9.68156 14.3443L9.53837 14.2047C9.31008 14.4388 8.99637 14.5699 8.6694 14.5679L8.66818 14.7679ZM7.657 14.3519C7.92559 14.6197 8.28988 14.7694 8.6692 14.7679L8.66838 14.5679C8.34229 14.5692 8.02912 14.4405 7.79822 14.2103L7.657 14.3519ZM1.6569 8.35177L7.6569 14.3518L7.79832 14.2104L1.79832 8.21035L1.6569 8.35177ZM1.2342 7.33408C1.23357 7.71627 1.38588 8.08283 1.65717 8.35205L1.79805 8.21008C1.56468 7.9785 1.43366 7.66318 1.4342 7.3344L1.2342 7.33408ZM1.2342 2.66789V7.33424H1.4342V2.66789H1.2342ZM2.66757 1.23424C1.87686 1.23646 1.23642 1.8769 1.2342 2.66761L1.4342 2.66817C1.43611 1.98748 1.98744 1.43615 2.66813 1.43424L2.66757 1.23424ZM7.33326 1.23424H2.66785V1.43424H7.33326V1.23424ZM8.34505 1.65025C8.07645 1.38241 7.71217 1.23268 7.33285 1.23424L7.33367 1.43424C7.65976 1.4329 7.97292 1.56161 8.20382 1.79187L8.34505 1.65025ZM8.73763 13.2705L2.73763 7.26396L2.59613 7.4053L8.59613 13.4119L8.73763 13.2705ZM13.2624 8.59108L8.59607 13.2706L8.73769 13.4118L13.404 8.7323L13.2624 8.59108ZM7.26252 2.7324L13.2625 8.7324L13.4039 8.59098L7.40394 2.59098L7.26252 2.7324ZM7.43323 2.66828V2.66169H7.23323V2.66828H7.43323ZM2.66688 2.76828H7.33323V2.56828H2.66688V2.76828ZM2.76688 7.33463V2.66828H2.56688V7.33463H2.76688Z" fill="#D4D4D4"/>
<circle cx="5.47984" cy="5.47984" r="0.64" fill="#D4D4D4" stroke="#D4D4D4" stroke-width="0.2"/>
</svg>
